<?xml version="1.0" encoding="UTF-8"?>
<svg id="Layer_1" data-name="Layer 1" xmlns="http://www.w3.org/2000/svg" viewBox="0 0 1920 1080">
  <defs>
    <style>
      .cls-1 {
        fill: #ed1c24;
      }

      .cls-2 {
        fill: #f1f2f2;
      }

      .cls-3 {
        letter-spacing: -.01em;
      }

      .cls-4 {
        font-family: Terminal-Grotesque, 'Terminal Grotesque';
        font-size: 120px;
      }

      .cls-5 {
        letter-spacing: -.03em;
      }
    </style>
  </defs>
  <rect class="cls-2" x="-12.96" y="-11.57" width="1937.89" height="1104.13"/>
  <path class="cls-1" d="m1368.46,685.93c1.11-2.39-1.56-4.29-.7-6.59-1.07-2.61-2.14-5.22-3.36-8.19.1-.94.24-2.33.38-3.71-.42-.56-.84-1.11-1.27-1.69.09-.9.19-1.82.24-2.32-.85-1.95-1.54-3.55-2.34-5.39.35-3.44.73-7.12,1.05-10.22-.56-1.31-.91-2.1-1.24-2.86.7-.66,1.19-1.12,1.77-1.67.61-5.9,1.23-11.92,1.84-17.87.65-.7,1.24-1.33,1.75-1.87-.19-.66-.27-1.1-.44-1.49-.26-.59-.6-1.14-.86-1.62q3.32-4.78,3.48-7.72c-.29-.36-.59-.72-1.1-1.36.61-5.95,1.25-12.14,1.78-17.32-.64-1.77-.94-2.58-1.2-3.32.73-.64,1.25-1.09,1.78-1.56.09-.9.19-1.83.28-2.73-.43-.56-.84-1.11-1.27-1.68.14-1.38.28-2.76.42-4.04-.45-.64-.84-1.19-1.26-1.79.19-1.83.38-3.67.56-5.48-1.89-1.15-.61-3-1.12-4.48-1.16-1.41-2.34-2.85-2.84-3.45-1.15-2.97-1.93-4.98-2.89-7.45.09-.86.23-2.23.36-3.5-.82-1-1.55-1.91-2.02-2.49-.57-1.59-1-2.8-1.44-4.02.07-.7.14-1.39.25-2.37-2.4-1.17-2.06-4.14-3.68-6.18,1.45-2.88-1.19-5.49-.76-8.42.05-.31-.54-.72-.84-1.08-.11-2.97.81-5.9.58-8.69-.46-.56-.75-.92-1.05-1.29.02-2.04.59-4.06.47-5.67-.62-.8-.9-1.17-1.2-1.55.14-1.37.28-2.76.42-4.08-.44-.6-.84-1.15-1.27-1.73.24-2.3.47-4.6.7-6.77-.46-.67-.84-1.23-1.26-1.84.14-1.37.28-2.73.36-3.51-.86-2.14-1.51-3.75-2.16-5.36.21-2.08.43-4.16.66-6.37-.58-.82-1.65-1.58-1.05-2.95-1.06-1.25-2.11-2.49-3.25-3.83-1.23-.13-2.61-.27-4.06-.42-2.12.66-2.16,3.28-4.01,4.45-.23,2.22-.46,4.52-.72,6.82-.02.18-.28.33-.42.5-.36.29-.72.59-1.1.89-.24,2.3-.48,4.62-.71,6.92-.53.47-1.05.92-1.59,1.39-.48,4.61-.95,9.24-1.42,13.79-.56.51-1.06.97-1.55,1.42.12,1.14-.35,2.15.26,3.37,1.05,2.12,1.03,2.35-.39,4.18-.99,1.27-.88,2.44-.71,3.75.32.39.61.75.91,1.11-.04,3.9-1.06,7.74-.87,11.47.46.56.75.92,1.05,1.3-.17,1.61-.36,3.23-.48,4.85-.03.4.21.83.33,1.22.28.38.55.75.85,1.16-.33,3.2-.66,6.44-.99,9.58.45.63.84,1.18,1.18,1.66.07,1.79-.69,3.11-1.96,4.39-.51,4.92-1.03,9.99-1.54,14.93-.49.4-.86.7-1.23,1-.24,1.07-.48,2.15-.7,3.12-1.02.83-1.93,1.57-2.82,2.29.42.55.83,1.1,1.19,1.57-.15,1.47-.29,2.85-.43,4.18-1.38,1.22-3.15,2.03-3.45,4.08-2.61,2.4-3.15,6.54-7.32,8.07-1.51-.08-3.55-.22-5.77-.68.23-2.27.44-4.29.62-6.06-.51-.63-.81-.99-1.16-1.43,0-1.04-.01-2.15-.02-3.16-.37-.46-.66-.82-1.18-1.45.23-2.24.49-4.72.72-6.95-.51-.63-.81-.99-1.16-1.42.28-2.71.57-5.49.83-8.26.02-.17-.23-.37-.56-.85-.08-.08-.39-.43-.68-.75.24-2.37.48-4.69.72-6.95-.43-.58-.84-1.13-1.27-1.71.24-2.3.47-4.61.71-6.86-.34-.42-.64-.78-1.15-1.42.18-1.77.39-3.79.51-4.97-.98-2.41-1.63-4.02-2.28-5.63-.3-1.36.77-2.7.07-4.04-.31-.38-.6-.74-.9-1.1.02-2.04.59-4.06.47-5.67-.62-.8-.9-1.17-1.2-1.55.19-1.83.38-3.68.56-5.48-.44-.59-.84-1.15-1.22-1.67.4-1.69.05-3.16-1.03-4.62.22-2.18.46-4.47.7-6.83-2.33-1.21.22-4.16-2.27-5.53.2-1.94.41-3.96.59-5.73-.51-.63-.81-.99-1.1-1.36.06-2.03.56-4.06.49-5.63-.64-.84-.91-1.21-1.17-1.54.86-8.37,1.72-16.71,2.57-24.98.55-.5,1.06-.96,1.6-1.45.48-4.62.95-9.24,1.41-13.71.59-.57,1.08-1.04,1.37-1.33.12-1.16.21-2.05.28-2.72-.49-.77-.84-1.34-.99-1.56.23-2.2.41-4.01.58-5.63,1.09-1.16,2.57-1.59,3.15-3.7.12-.49-1.02-.9-1.36-1.82.85-8.24,1.71-16.58,2.56-24.89-.32-.39-.61-.75-.91-1.12-.1-.2-.3-.4-.28-.59.16-1.84.36-3.67.54-5.37.52-.42.88-.71,1.24-1-.36-1.17-.6-2.4-1.12-3.49-.38-.79-1.13-1.4-1.81-2.2-2.03.54-4.06-.98-6.07.22-.1.97-.19,1.89-.34,3.26-.91.57-2.08,1.31-2.93,1.85-.56,1.93.35,3.89-1.27,4.93-1.63,1.04-.33,3.06-1.83,4.22-1.13.88-1.71,2.46-2.52,3.7-.12,1.19-.24,2.35-.36,3.51-1.5,1.33-2.59,3.1-3.2,4.86-.92,2.62-2.15,4.82-4.34,6.48-2.91,2.21-3.96,5.69-6.67,9.25-1.17.95-3.16,2.57-5.18,4.22-.09.89-.19,1.81-.28,2.7-1.04.91-2.05,1.79-3.03,2.63.39.58.73,1.09,1.06,1.59-1.01.82-1.92,1.56-2.89,2.35-.09.84-.18,1.75-.33,3.25-.66.43-1.65,1.02-2.58,1.69-.92.66-.41,2.3-1.78,2.7-1.55,3.1-3.58,5.9-5.49,8.78.43,1.84-1.4,2.7-1.81,4.15-.49,1.72-2.35,2.08-3.27,3.56-.08.77-.17,1.67-.26,2.51-.98.8-1.88,1.53-2.79,2.27-.82,3.25-2.41,6.32-5.28,8.2-.09.89-.19,1.81-.27,2.61-.56.56-1.25.95-1.48,1.53-.33.82-.2,1.84-.52,2.67-.23.58-1.1.9-1.31,1.48-.29.82-.24,1.77-.3,2.43-1.16.94-2.46,1.51-2.87,2.46-.47,1.08-.85,2.05-1.87,2.64-.1.96-.19,1.89-.29,2.79-.53.47-1.05.92-1.59,1.39-.24,2.31-.48,4.61-.71,6.9-1.29.71-2.14,2.79-4.06,1.18-.63-1.22.76-2.74-.59-3.86-1.43-1.2.42-3.06-.97-4.47-.84-.85-1-2.36-1.63-4.01.09-.87.23-2.26.32-3.12-.64-1.66-1.03-2.91-1.59-4.08-.57-1.19-1.8-1.86-1.97-3.48-.13-1.2-1.42-2.27-2.32-3.57.05-.46.31-1.2.15-1.83-.37-1.46-.81-2.93-1.49-4.26-.49-.96-1.26-1.71-2.59-2.01-.88-.2-1.49-1.55-2.17-2.32.17-1.63.31-2.99.44-4.26-2.46-2.06-2.4-5.5-4.67-7.37.1-1.02.2-1.93.26-2.49.75-.92,1.29-1.6,1.9-2.35-1.07-1.47-1.98-2.72-2.74-3.76.11-1.05.18-1.74.26-2.51-.37-.51-.78-1.06-1.22-1.66.23-2.25.47-4.57.71-6.86-.43-.57-.84-1.12-1.27-1.7.09-.9.19-1.82.28-2.68-.44-.6-.84-1.15-1.27-1.74.14-1.37.28-2.75.42-4.06-.35-.43-.65-.79-1.16-1.43.18-1.77.39-3.79.57-5.56-.96-1.18-1.69-2.08-2.52-3.11.27-2.66.57-5.42.83-8.19.02-.18-.2-.38-.31-.58-.29-.36-.59-.72-.91-1.11.16-1.59.36-3.21.48-4.83.03-.41-.2-.83-.31-1.23-.28-.38-.56-.75-.86-1.14.14-1.36.28-2.74.42-4.05-.44-.61-.84-1.17-1.27-1.76.28-2.76.57-5.53.85-8.22-.36-.44-.65-.8-1.17-1.43.37-3.62.77-7.5,1.06-10.25-1.06-3.36-2.64-5.38-2-8.05-.39-.52-.8-1.07-1.23-1.65.28-2.74.57-5.52.85-8.28-.43-.56-.84-1.11-1.27-1.68.09-.91.19-1.83.28-2.71-.32-.4-.62-.76-1.13-1.39.18-1.77.39-3.79.56-5.44-.62-.93-.99-1.49-1.4-2.11.14-1.36.28-2.72.41-3.96-.4-.49-.69-.85-1.21-1.49.18-1.77.39-3.79.57-5.56-.51-.63-.81-.99-1.18-1.45.37-3.61.76-7.31,1.12-11,.02-.18-.22-.38-.33-.57-.29-.36-.59-.72-.88-1.08.62-6.03,1.24-12.05,1.86-18.08-2.56-2.31-2.61-6.34-5.87-8.41-3.93-.4-8.08-.83-12.11-1.25-1.5-1.86-4.08-2.32-4.96-4.71-.65.47-1.18.85-1.75,1.25-.87-.09-1.79-.18-3.05-.31-.9,2.07-2.49,3.92-2.75,6.42-.95.74-1.87,1.45-2.77,2.16.38,1.53-1.06,1.91-1.68,2.8-.31,3.01-.62,6.03-.94,9.04-.02.22-.11.43-.17.66-2.41.79-.69,4.09-2.99,4.96-.24,1.35-.49,2.7-.75,4.14-1.53,1.22-1.63,3.95-4.12,4.47-.33-2.14-2.08-3.98-1.35-6.29-.4-.59-.78-1.14-1.2-1.75.24-2.29.47-4.59.7-6.77-.38-.47-.68-.83-1.19-1.47.18-1.77.39-3.79.57-5.56-.51-.63-.81-.99-1.21-1.49.11-1.02.28-2.16.33-3.3.06-1.35.62-2.7-.02-4.29-.61-.69-1.38-1.56-2.11-2.4.1-1.01.2-1.94.29-2.78-.41-.58-.78-1.1-1.12-1.58.49-.49.92-.92.87-.87-.08-3.75-2.66-5.55-4.25-7.93.15-1.42.29-2.81.42-4.1.52-.49.98-.93,1.46-1.38-1.44-1.09-3.49-1.39-3.79-3.55.12-1.16.24-2.32.37-3.58-.34-.49-.73-1.04-1.18-1.69.08-.8.18-1.71.27-2.63-.84-1.1-1.66-2.17-2.46-3.22.53-.49,1.03-.95,1.4-1.29.16-1.55.3-2.92.43-4.21-.8-.99-1.54-1.89-2.34-2.87.08-1.49.16-3.06.23-4.42-.47-.58-.76-.94-1.28-1.57.18-1.78.39-3.8.57-5.56-.51-.63-.81-.99-1.1-1.36.1-.93.19-1.85.28-2.76-.43-.56-.84-1.11-1.27-1.68.24-2.31.48-4.61.67-6.48-.85-1.98-1.54-3.58-2.34-5.43.26-2.5.54-5.25.81-7.87-.41-.5-.72-.85-.98-1.24-.05-.07.13-.3.22-.47,1-.69,1.7-1.41.95-2.8-1.05-1.94-1.59-4.16-3.32-5.68.2-1.93.39-3.76.48-4.65-.49-1.7-1.15-2.71-.89-3.32.79-1.85-1.6-2.8-1.03-4.47-.97-1-.91-2.46-1.52-3.58-.66-1.21-1.65-2.27-2.63-3.25-.42-.42-1.38-.32-1.77-.75-1.41-1.55-2.68-3.22-4-4.85.34-2.78-2.32-3.78-3.38-5.73-.1-.19-.15-.4-.31-.82.07-.69.16-1.59.25-2.38-1.27-1.56-2.44-3.01-2.89-3.55-1.67-3.77-2.23-6.78-3.82-9.41-.11-.18-.15-.4-.3-.85.16-1.59.35-3.41.53-5.13-.83-1.03-1.57-1.93-2.35-2.89.09-.86.18-1.77.28-2.69-.43-.58-.84-1.13-1.27-1.7-.03-1.28.68-2.64-.57-3.86-.79-.76-.15-2.13-1.13-3.07-.46-.44,0-1.73-.18-2.59-.23-1.04-.9-2.02-1.01-3.06-.12-1.13.21-2.31.29-3.47.03-.43-.05-.88-.09-1.32-.29-.36-.59-.72-.96-1.18.13-1.27.27-2.64.46-4.5-1.28-1.25-2.76-2.71-3.95-3.87.16-1.53.25-2.45.34-3.31-1.1-1.47-2.17-2.76-2.69-4.66-.45-1.64-2.2-2.94-3.37-4.38.6-2.25-1.84-2.99-2.39-4.92.07-.69.16-1.59.26-2.5-1.67-2.02-3.31-3.99-4.93-5.96.68-1.41-.65-2.08-1.12-3.17.13-1.29.27-2.66.41-3.94-.68-1.77-2.3-2.18-3.64-2.96.23-1.78-.85-2.84-1.43-3.29-5.06.69-8.88,2.83-12.03,6.62.42.73.85,1.48,1.38,2.4-.17,1.64-.36,3.48-.55,5.31.86,1.11,1.7,2.2,2.5,3.23-.18,1.72-.35,3.34-.51,4.97-.02.21.04.44.08.84,2.86,1.52-.89,4.93,1.76,6.7-.05,1.37-.1,2.74-.15,4.14-.51.49-1,.96-1.59,1.51-.13,1.25-.27,2.63-.42,4.12.33.45.74,1,1.17,1.58-.09.88-.19,1.8-.28,2.74-.5.44-1.02.9-1.5,1.32-.48,4.67-.96,9.3-1.41,13.68.53.95.95,1.71,1.31,2.34-.82,1.16-1.44,2.03-2.08,2.93.47.72.83,1.28,1.25,1.93-.2,1.91-.4,3.92-.53,5.14-.88,1.4-1.34,2.12-1.76,2.8.58.78.99,1.33,1.43,1.91-.16,1.58-.3,3.2-.52,4.81-.05.4-.38.77-.57,1.13-.35.32-.69.62-1.07.96-.33,3.2-.66,6.44-.99,9.59-.56.52-1.06.98-1.45,1.34-.73,1.53.9,2.09,1.08,3.75-.42,4.06-.89,8.67-1.34,13.01.49.8.84,1.36.96,1.56-.18,1.78-.32,3.12-.44,4.3-.54.44-.9.73-1.53,1.25-.14,1.31-.3,2.87-.43,4.17-.63.51-.99.81-1.36,1.1-.24,2.32-.48,4.64-.71,6.93-.53.46-1.05.92-1.51,1.32-.71,1.46.77,2.07,1.12,3.33-.22,2.09-.45,4.38-.76,7.38.75.56,1.86,1.4,2.51,1.89-.15,2.16-.21,3.57-1.78,4.28-.09.9-.19,1.81-.3,2.93.96,1.09,2.04,2.3,3.48,3.91,1.51.16,3.53.36,5.63.58.88,1.95,1.69,3.74,2.63,5.8-.11,1.1-.25,2.44-.37,3.61.45.55.74.91,1.05,1.29-.49.44-.98.88-1.46,1.31.41.55.82,1.1,1.25,1.68-.19,1.84-.38,3.68-.56,5.47.34.42.64.78,1.15,1.41-.23,2.23-.49,4.72-.6,5.84.6,2.14,1.09,2.99,1.01,3.79-.12,1.25.04,2.26,1.1,3.13-.5.47-.96.9-1.48,1.39-.09.84-.18,1.76-.28,2.71.39.52.8,1.07,1.23,1.64-.28,2.76-.57,5.54-.85,8.26.44.59.84,1.14,1.27,1.73-.24,2.3-.47,4.6-.68,6.56.54,1.06.94,1.83,1.27,2.48-.75.95-1.29,1.64-1.99,2.53-.26,2.52-.54,5.27-.81,7.86-.52.42-.88.72-1.38,1.12-.18,1.71-.37,3.55-.56,5.39-.21,2.09-.36,4.18-.67,6.26-.27,1.79.02,3.69-1.11,5.26-.43.75-.86,1.49-1.23,2.14.59.78,1,1.33,1.43,1.91-.14,1.36-.28,2.75-.42,4.06.44.6.84,1.16,1.15,1.58-.25,2.45-.49,4.75-.72,6.98-.43.35-.79.65-1.43,1.16-.13,1.29-.29,2.86-.41,4.01-.79.82-1.26,1.3-1.44,1.49-1.09,10.54-2.13,20.7-3.16,30.71.43.52.72.89,1.24,1.52-.18,1.78-.39,3.8-.57,5.56.51.63.81.99,1.11,1.37-.14,1.37-.28,2.76-.43,4.13.43.57.84,1.12,1.27,1.7-.24,2.29-.47,4.6-.7,6.83.44.61.84,1.16,1.27,1.75-.14,1.37-.28,2.74-.42,4.05.36.44.65.8,1.16,1.43-.18,1.77-.39,3.79-.56,5.4.61.97.96,1.53,1.36,2.17-.33,3.21-.66,6.42-.97,9.46.43.53.73.89,1.02,1.25.04,2.5-.65,4.98-.51,7.21.53.65.82,1.01,1.12,1.38-.19,1.84-.38,3.7-.57,5.54,1.6,1.17.97,3.43,2.34,4.7-1.15,1.96.88,3.37.88,5.13-.56.68-1.12,1.35-1.43,1.72-.18,1.71-.31,3.05-.37,3.57.58,1.58.87,2.39,1.14,3.13-.73.64-1.25,1.09-1.79,1.56-.16,1.59-.3,3.22-.52,4.83-.05.4-.38.76-.59,1.14-.34.31-.67.61-1.05.96-.19,1.8-.38,3.64-.5,4.85-.75,1.25-1.45,1.95-1.59,2.75-.21,1.18-.51,2.08-1.45,2.94-.53.49-.34,1.72-.6,2.58-.32,1.04-1.82,1.34-1.7,2.77.08.91-.16,1.85-.31,3.37-1.4.89-3.15,2.01-4.56,2.91-.35,3.37-.63,6.14-.91,8.86-.41.34-.77.63-1.41,1.14-.28,2.69-.58,5.65-.86,8.35-.63.51-.99.81-1.47,1.19-.15,1.45-.31,3.01-.46,4.43.41.5.7.87,1.06,1.31-.45.43-.91.87-1.44,1.36-.09.83-.18,1.75-.29,2.81-.69.49-1.45,1.02-2.37,1.66-1.32-.14-2.87-.3-4.4-.45-.49-1.13-.13-2.36-1.16-3.21-.66-.55-1.16-1.41-1.48-2.23-.55-1.4-.65-3.04-1.42-4.27-.97-1.54-2.42-2.78-3.45-3.91.15-1.42.24-2.33.32-3.11-.46-.67-.84-1.23-1.08-1.58.05-1.62.1-2.99.15-4.36-2.08-1.66-.15-3.94-.89-5.8-.73-.9-1.98-1.76-2.08-2.72-.12-1.25-.53-2.14-1.28-3.01.29-2.79.57-5.57.82-7.93-.84-1.94-1.54-3.53-2.34-5.37.12-1.13.26-2.49.33-3.24-.86-2.15-1.5-3.76-2.15-5.38.12-1.16.24-2.32.36-3.48-1.59-2.38-1.84-5.36-3.48-7.84.18-1.75.37-3.58.51-4.92-.86-2.04-1.53-3.65-2.2-5.25.12-1.16.24-2.32.35-3.39-.73-1.66-1.44-3.26-2.28-5.17.15-1.46.35-3.32.51-5.17.01-.16-.29-.34-.53-.6-.63-.29-1.4-.65-1.8-.83-.53-1.45.53-2.63-.47-3.65-.65-.21-1.27-.41-2.11-.68.21-2.06.42-4.08.53-5.16-1.29-3.31-2.24-5.73-3.38-8.63.13-1.3.32-3.14.5-4.81-1.58-2.57-1.87-5.52-3.52-8.03.27-2.66.56-5.42.83-8.09-.37-.45-.66-.82-1.18-1.45.14-1.31.3-2.86.43-4.17-.51-.63-.81-.99-1.17-1.44.28-2.68.56-5.44.85-8.2-.42-.59-.82-1.15-1.26-1.78.08-.83.18-1.74.27-2.66-.43-.57-.85-1.12-1.27-1.68.19-1.83.38-3.68.57-5.5-.43-.57-.84-1.12-1.27-1.7.14-1.38.28-2.76.43-4.15-2.16-1.16-.2-3.56-1.53-4.94-1.36-1.41.59-3.78-1.71-5.05.25-2.42.51-4.91.75-7.26-1.94-1.46-1.95-3.8-3.23-5.29-1.38-1.59-1.51-3.67-2.73-5.5.22-2.12.45-4.4.62-6.01-.73-1.82-1.23-3.02-1.68-4.24-.53-1.41-1.24-2.81-1.45-4.27-.2-1.34-1.87-2.14-1.21-3.69-1.7-1.15-.73-2.93-1.03-4.39-.75-.92-1.48-1.82-2.27-2.79.09-.85.18-1.76.28-2.67-.43-.58-.83-1.13-1.27-1.73.14-1.33.28-2.72.42-4.12-.78-.85-1.26-1.72-1.27-3.01,0-.73-1.07-1.45-1.66-2.17-.71-.87-1.42-1.74-1.93-2.38.12-1.12.19-1.82.29-2.78-.74-.91-1.61-1.98-2.48-3.05.95-1.77-1.95-2.64-1.04-4.41-1.34-.82-.83-2.48-1.62-3.56-.82-1.12-1.59-2.27-2.12-3.03-2.44-.25-4.28-.44-5.54-.57-1.72.67-2.93,1.14-4.14,1.61-.14,1.39-.29,2.78-.43,4.16.42.55.84,1.1,1.2,1.58-.1,1-.2,1.91-.28,2.74-.57.53-1.07.99-1.49,1.39-.44,1.74.05,3.18,1.03,4.71-.94,9.09-1.89,18.33-2.83,27.45.4.49.7.86,1.21,1.49-.8,7.8-1.63,15.85-2.44,23.65.51.63.81.99,1.14,1.4-.47,4.58-.95,9.21-1.43,13.92-.45.39-.97.84-1.5,1.31-.09.9-.19,1.83-.28,2.73.43.56.84,1.11,1.21,1.6.4,1.58-1.19,1.87-1.77,3.05-.17,1.61-.35,3.44-.53,5.19-.46.37-.82.66-1.44,1.17-.14,1.35-.32,2.94-.46,4.53-.13,1.37-.4,2.49-1.52,3.63-.95.97-.15,3.21-2.01,3.99-.48,1.53-.01,3.23-.96,4.65-.37.28-.74.57-1.09.84-.24,2.35-.48,4.66-.72,6.94-.54.47-1.05.93-1.59,1.4-.14,1.38-.28,2.76-.42,4.08-.41.34-1.06.6-1.09.93-.33,2.9-2.69,5.03-2.7,8.15-.01,3.91-.71,7.81-1.13,11.84-2.22.43-1.39,2.18-1.76,3.44.34,1.03,1.76,1.66.81,3.62-.07.26-1.48.27-1.27,2.05.18.3.64,1.04,1.05,1.71-.63,6.09-1.25,12.1-1.85,17.99-.58.55-1.07,1.02-1.61,1.53-.19,1.83-.38,3.66-.56,5.39-.47.38-.83.67-1.43,1.16-.14,1.38-.23,2.98-.49,4.56-.29,1.73.37,3.83-1.76,4.92-.39,1.48-.06,3.3-1.94,4.1-.19,1.85-.38,3.7-.57,5.57.26.34.59.67.79,1.08.19.38.21.84.35,1.24.51,1.42.97,2.87,1.6,4.24.55,1.19,1.78,1.86,1.95,3.49.12,1.17,1.34,2.4,2.34,3.29,1.15,1.02.85,2.52,1.6,3.59.8,1.14,1.88,2.1,2.59,3.29.66,1.1.99,2.4,1.65,4.11-.18,1.74-.42,4.04-.66,6.37.85,1.1,1.7,2.19,2.5,3.24-.96,9.32-1.91,18.58-2.86,27.76-.56.51-1.06.97-1.44,1.32-.35,3.39-.68,6.62-1,9.68.47.7.84,1.26,1.17,1.74-.41,1.83.19,3.76-1.7,5.15-.74.55-.68,2.08-.33,3.13.35.44.65.8.95,1.16-.13,1.56.13,3.19-.73,4.59-.41.34-.77.63-1.14.93-.38,3.7-.76,7.41-1.14,11.1-.53.47-1.05.92-1.38,1.2-.71,2.15-.19,4.32-1.02,6.17-1.44-.05-2.6.18-3.58-.57q-.89-3.06-3.9-4.8c-.1-.64-.2-1.29-.32-2.07-2.26-2.03-3.44-5.31-7.1-7.06-1.17-1.47-2.76-3.47-4.13-5.2-1.82-1.01-3.54-1.61-4.77-2.75-1.33-1.23-2.19-2.96-3.03-4.14-2.46-.25-4.3-.44-5.53-.57-1.57-1.02-2.77-1.61-3.71-2.48-1.02-.94-1.71-2.22-2.7-3.2-.92-.91-2.52-.93-3.17-2.26-1.78.18-2.25-1.41-3.09-2.41-.89-1.06-2.64-.83-3.18-2.29-2.14-.19-2.8-2.13-4.05-3.4-.46-.05-.92-.09-1.39-.14-1.11-.93-.11-2.75-1.6-3.59-1.32-.74-2.51-1.7-3.8-2.59-1.1-.11-2.26-.23-3.43-.35-2.92.93-5.25,3.15-8.52,3.94-.2,1.93-.41,3.95-.59,5.72-.63.51-.99.81-1.41,1.14.38.53.77,1.05,1.17,1.62-.19,1.8-.38,3.66-.61,5.95.77.75,1.77,1.71,2.39,2.32.72,3.16-2.82,4.65-1.74,7.4.29.36.59.72.96,1.18-.44.43-.89.86-1.41,1.37-.08.8-.18,1.72-.28,2.73.35.47.77,1.02,1.2,1.59-.09.9-.19,1.82-.24,2.32.47,1.16.77,1.98,1.13,2.78.36.8.96,1.54,1.1,2.36.15.86-.13,1.8-.21,2.54,1.32,1.63,2.5,3.07,3.26,4.01.65,1.8,1.06,3.02,1.52,4.23.23.61.45,1.25.83,1.77.82,1.13,1.75,2.18,2.63,3.27-.42,2.36,2.21,3.27,2.51,5.32.35,2.4,2.72,3.57,3.3,4.92.35,1.39.51,2.02.59,2.34,1.39,1.71,2.6,3.14,3.74,4.61,1.09,1.4,1.14,3.26,2.38,4.75.98,1.18,1.45,3.07,1.88,4.77.42,1.67,1.36,3.2,2.21,5.1-.1,1.01-.25,2.4-.39,3.77.43.57.84,1.12,1.27,1.7-.09.9-.19,1.82-.24,2.33.85,1.94,1.54,3.54,2.17,4.98-.14,2.43-.27,4.73-.4,7.03,1.84,1.12.36,3.02,1.05,4.4.2.41.57.73.96,1.21-.47,4.51-.95,9.14-1.4,13.76-.02.18.2.38.31.57.29.36.59.72,1.02,1.25-.71,1.32.15,3.1-1.06,4.45-.34.3-.69.61-.99.88-.43,4.2-.86,8.37-1.28,12.45.44.62.84,1.17,1.27,1.76-.33,3.23-.66,6.45-1,9.67,1.84,1.15.69,2.97,1.09,4.41.75.93,1.49,1.83,2.27,2.79-.18,1.79-.37,3.63-.59,5.73,1.78.86.82,3.29,2.43,4.48-.14,1.36-.28,2.74-.42,4.12,1.11,2.15,1.21,4.6,2.07,6.81-.96,2.75,1.28,5.12.97,7.82-.04.32.54.72.84,1.08-.16,1.56.13,3.2-.75,4.58-.42.34-.78.63-1.14.93-.43,4.17-.86,8.35-1.33,12.95-.91.57-2.08,1.31-3.1,1.95-.27,2.64-.51,4.93-.74,7.14-.45.37-.82.66-1.45,1.18-.23,2.23-.49,4.72-.72,6.95-.63.51-.99.81-1.34,1.09-.21,2.03-.42,4.06-.54,5.21.95,2.62,1.61,4.44,2.21,6.12-.74.67-1.23,1.11-1.71,1.55.33.41.63.77,1.14,1.4-.18,1.77-.39,3.79-.6,5.78,1.55,1.36,2.22,2.91,2.88,4.65.61,1.61,2.34,2.8,2.68,3.18,1.77,5.54,3.08,9.76,6.45,12.85-.06.59-.11,1.05-.15,1.5.96.94,1.43,2.48,3.09,2.41,1.97,1.51,2.63,4.4,5.45,4.95,1.61,1.99,3.21,3.99,4.49,5.57,1.03.51,1.75.67,2.17,1.1.97,1,1.82,2.12,2.66,3.23.83,1.1,2.62.85,3.16,2.31,1.83-.31,2.25,2.29,4.08,1.97.62,1.38,2.15,1.46,3.19,2.25,1.21.92,2.35,2.25,3.72,2.56,1.94.44,2.28,2.16,3.48,3.16,1.54.27,3.08.77,4.97.16.76-1.02,1.66-2.23,2.53-3.4.47.49.85,1.2,1.43,1.43,2.79,1.1,4.99,2.87,6.68,5.32.26.38.59,1.04.88,1.03,1.39-.03,2.07.87,2.7,1.83.73,1.09,2.25,1.82,1.7,3.53,1.36,1.78,2.71,3.42,4.8,4.61,2.04,1.16,4.44,2.11,5.87,4.03,1.67,2.23,3.82,3.69,6.07,5.13,1.16.12,2.32.24,3.63.38,3.29,4.05,6.66,8.19,9.34,11.49,1.98,1.25,3.06,1.94,4.16,2.63.84-.44,1.62-.84,2.43-1.26,1.29.73,2.6,1.47,3.87,2.18.62,1.86,1.24,3.69,1.84,5.49.61.06,1.39-.03,1.48.18.63,1.43,2.58,1.19,3.14,2.32,1,2.02,3.43,2.17,4.54,3.91,2.24-.37,3.5,1.8,5.67,2.25,1.43,1.82,3.02,3.83,4.49,5.7.8.3,1.41.53,2.02.76.21.83.42,1.67.54,2.17,1.77,1.03,3.26,1.89,5.63,3.27.48.73,1.5,2.27,2.43,3.69,1.67.17,3.03.31,4.09.42,1.46,1.13,3.03,1.84,3.8,3.05,1.06,1.67,3.16,1.63,4.2,3.29.79,1.25,1.4,3.05,3.75,3.18.49-.4,1.15-1.03,1.9-1.51,2.4-1.54,5.25-1.99,7.84-3.09.17-.07.43.08.38.07.85.72,1.51,1.28,2.14,1.81,1.04-.55,1.81-.96,2.75-1.47,1.55,1.02,3.18,2.08,5.6,3.67,1.55.16,4.04.42,6.3.65.48.62.77.99,1.04,1.33.57-.43,1.11-.84,1.58-1.19,1.01.1,1.93.2,2.74.28.54.57,1,1.07,1.51,1.6,1.83.19,3.66.38,5.41.56.81,1,1.55,1.9,2.5,3.08,4.56.47,9.36.96,13.91,1.43.51.63.81.99,1.1,1.36.74-.44,1.46-.87,2.22-1.33,2.84,2.38,6.44,3.4,8.54,6.78,1.91-.15,3.89.69,5.75.36.57-.46.93-.76,1.32-1.08.89.09,1.81.19,2.77.28.43.49.88,1,1.33,1.51,1.39.67,2.05-.69,2.93-1.04,1.95.2,3.79.39,5.49.57.53.54.96.97,1.38,1.39.48-.39.88-.97,1.19-.93,3.04.42,5.41-1.5,8.12-2.23.42-.11,1.19-.19,1.2-.33.18-2.37,2.99-2.73,3.57-4.7.44-1.5,1.57-2.51,2.83-2.54,2.71-.06,2.78-2.59,4.16-3.86.45.05.91.09,1.39.14,3.06-2.51,6.12-5.02,9.14-7.5,1,.1,1.93.2,2.91.3.87-.72,1.79-1.43,2.65-2.21,1.02-.94,2.18-1.38,3.55-1.71,1.02-.24,1.76-1.87,2.75-2,1.78-.25,3.42-.93,4.88-1.69,1.36-.71,3.09-.49,4.2-1.92,1.12-1.45,3.2-1.29,4.95-2.33,2.05.21,4.33.45,6.48.67,1.04-.87,1.93-1.62,2.81-2.36.96.1,1.88.19,2.77.29.58-.43,1.13-.84,1.59-1.19,4.73.49,9.35.96,13.16,1.36,1.63.88,2.68,1.27,3.5,1.93,1.05.84,1.52,2.3,2.64,2.81,1.71.69,2.33-1.95,3.95-.94,1.23-1.46,2.82-1.25,4.42-.97,2.54-2.06,5.07-4.12,7.62-6.2.44.05.89.09,1.39.14,2.49-2.07,5-4.15,7.45-6.19,1.76.5,3-.58,3.6-1.63,1.76-3.08,4.15-5.09,7.56-6.12,1.03-.31,1.8-1.96,2.74-2.01,1.31-.07,2.21-.5,3-1.33,1.76-1.86,4.22-2.38,6.39-3.47.57-.29,1.5-.25,1.78-.67,1.13-1.76,3.16-1.75,4.74-2.35,1.76-.67,3.81-.61,5.67-1.31.58-.22,1.34.03,2.01.07,1.75-1.94,4.09-2.75,6.43-3.4,1.01-.28,2.07-.13,3.22-.54,3.66-1.28,7.16-3.04,10.95-3.95,2.35-1.91,4.67-3.86,7.07-5.71.8-.62,1.31-1.26,1.23-2.29,1.79-.82,1.65-3.15,3.24-4.12-.69-2.33,1.45-3.65,2.12-5.49,1.02-2.79,3-5.23,4.93-8.42.06-.6.21-2,.34-3.27,2.05-1.85,2.58-4.7,4.64-6.42.11-2.74,2.63-4.59,2.59-7.24,1.05-.83,1.96-1.56,2.86-2.27.1-.95.19-1.88.29-2.77.54-.47,1.05-.93,1.59-1.4.14-1.38.28-2.76.45-4.32,2.57-.83,3.19-3.47,4.71-5.34.37-1.8.06-3.69.75-5.26.53-.43.89-.72,1.27-1.03.47-2.44.29-5.01.98-7.26.6-.44.98-.71,1.33-.96.24-2.37.48-4.69.72-6.95.54-.48,1.06-.94,1.59-1.42.24-2.3.47-4.61.68-6.58.74-.91,1.29-1.58,1.77-2.16-.54-1.07-.93-1.85-1.21-2.4.31-2.96.59-5.71.86-8.31.51-.42.88-.71,1.24-1.01.07-.21.17-.41.19-.63.37-3.48.72-6.95,1.1-10.43.02-.18.26-.34.4-.51.36-.29.72-.59,1.11-.9.19-1.82.38-3.67.57-5.5.54-.48,1.06-.93,1.59-1.41.09-.9.19-1.82.26-2.54.7-.79,1.28-1.43,1.77-1.98-.55-1.3-.97-2.29-1.36-3.2.66-.84,1.2-1.53,1.91-2.42.21-2.06.45-4.34.62-6.01,1.19-1.76,2.04-3.03,3.13-4.64,1-9.73,2.05-19.93,3.11-30.14-.83-1.07-1.67-2.15-2.49-3.21Zm-7.99,9.18c.4,1.59-1.21,1.87-1.66,2.86.02.45-.15,1.07.08,1.3.89.92,1.02,1.91.93,3.14-.06.8.46,1.64.77,2.63-.8,1.14-1.79,2.53-2.95,4.18-.73,7.08-1.49,14.49-2.26,21.89-.38.31-.74.6-1.37,1.12-.18,1.77-.39,3.79-.57,5.56-.63.51-.99.81-1.45,1.18-.22.99-.46,2.07-.69,3.11-.4.33-.77.62-1.4,1.14-.28,2.7-.58,5.65-.86,8.35-.63.52-.99.81-1.42,1.16-.61,5.95-1.23,11.96-1.85,17.97-.54.49-1.05.94-1.6,1.44-.09.86-.18,1.78-.28,2.73.38.52.78,1.06,1.18,1.6-.36.3-.73.59-1.09.88-1,1.18-.19,2.72-.67,4.09-.45.49-.89.97-1.53,1.66-.18.81-.41,1.9-.64,2.92-.42.34-.78.63-1.25,1.02-.27,2.65-.56,5.41-.82,7.93-1.16,1.63-2.17,3.05-3.39,4.75-.1,1-.25,2.39-.39,3.75-1.11,1.57-2.98,1.8-4.49,2.59-.68,1.41.94,1.97,1.08,3.07-.26,1.76-2.68,2.68-1.91,4.85-1.82,1.64-2.3,4.44-4.76,5.3-.14,1.35-.26,2.51-.39,3.8-1.05,1.51-2.16,3.11-3.3,4.76-.11,1.09-.23,2.25-.41,4-.84.46-2.05,1.13-1.91,1.05-1.44,2.16-2.04,3.06-2.86,4.28-.05.49-.15,1.42-.2,1.9-.82,1.23-1.41,2.13-2.26,3.4-.36.09-1.2.29-2.13.52-.23,1.04-.47,2.12-.73,3.23-1,.44-1.47,1.81-2.89,1.64-.39-.05-.83.22-1.22.4-1.98.9-1.79,4.03-3.96,4.37-2.02.31-3.18,1.59-4.63,2.61-2.15-1.15-3.77,1.18-5.8.89-2.95,3.29-7.68,3.99-10.45,7.33-2.05-.64-3.32,2.19-5.32.82-1.42.61-2.77,1.5-4.44.95-2.95,1.16-4.4,4.76-7.98,4.9-2.53,2.06-5.06,4.11-7.58,6.17-.48-.05-.94-.1-1.5-.15-3.02,2.46-6.09,4.96-9.21,7.49-.39-.04-.85-.09-1.29-.13-2.01,1.63-4,3.25-5.99,4.87-.45,0-1.11-.21-1.32.01-1.31,1.36-3.54.76-4.71,2.27-5.57-.57-11.13-1.15-16.66-1.72-.32-.39-.61-.75-.91-1.11-1.22-.81-2.66-.5-4.2-.81-.43.26-1,.6-1.84,1.1-1.05-.11-2.4-.25-3.51-.36-2.68,1.09-4.89,2.8-7.81,2.14-1.06.82-2.14,1.66-3.22,2.49-1.18-.12-2.34-.24-3.49-.36-2.04.73-4.07,1.49-6.11,2.16-.4.13-.92-.07-1.38-.12-2.12.37-2.34,2.49-3.51,3.81-.88-.09-1.8-.19-2.71-.28-.57.43-1.12.85-1.69,1.27-.43-.04-.9-.09-1.37-.14-.9.73-1.8,1.47-2.7,2.21-1.69.36-3.65-.39-5.03,1.21-1.39-.36-2.37.64-2.86,1.48-.91,1.56-1.55,3.27-3.63,3.45-1.78.15-2.44,2.28-4,2.34-1.54.05-1.85.58-2.14,1.93-.16.71-1.27,1.59-2.06,1.73-2.68.46-4.52,1.76-5.5,4.31-.27.69-1.01.62-1.6.87-1.6.67-3.6.63-4.76,2.06-1.25,1.53-3.56.85-4.69,2.5-2.76-.28-5.54-.57-8.34-.86-.43-.49-.89-1.01-1.36-1.54-5.54-.57-11.1-1.14-16.63-1.71-.31-.38-.61-.75-1.12-1.38-1.77-.18-3.79-.39-5.57-.57-.51-.63-.81-.99-1.23-1.51-2.13-.22-4.41-.45-6.7-.69-.54-.52-1.01-.99-1.82-1.78-1.62-.17-3.64-.38-5.41-.56-.51-.63-.81-.99-1.15-1.42-1.78-.18-3.62-.37-5.46-.56-.48-.54-.94-1.05-1.43-1.6-.87-.09-1.79-.19-2.36-.24-1.52-1.05-2.78-1.92-4.78-3.3-2.54-.39-5.99-.54-9.28-1.01-.38-.47-.68-.83-1.09-1.34-1.88-.19-3.9-.4-5.83-.6-.46.37-.82.67-1.39,1.13-1.41-.15-3.01-.43-4.61-.44-1.53,0-1.84-2.25-3.45-1.77-1.98.59-2.25-2.42-4.16-1.86-.75-1.17-1.49-2.33-1.92-3.01-1.97-.2-3.13-.32-4.45-.46-1.03-.99-2.07-2.16-3.29-3.12-1-.79-2.2-1.34-3.36-1.9-2-1.4-2.66-4.29-5.48-4.83-1.62-1.99-3.81-3.74-4.73-6.02-1.97-4.84-5.98-8.01-8.63-12.06-1.38-.14-2.54-.26-3.79-.39-2.34-2.24-6.15-2.14-8.3-5.01-1.31-.14-2.69-.28-3.98-.41-3.21-3.15-7.94-4.12-10.49-7.97-4.53-1.97-5.91-6.9-9.25-9.66-.38-1.27-.69-2.29-1.31-4.32.03-.31.17-1.66.29-2.77-.31-.65-.48-1.06-.7-1.43-.66-1.14-2.22-1.82-1.76-3.52-1.45-1.97-1.4-4.78-3.57-6.09,0-.72.02-1.17.02-1.62q-1.35.07-2.05.61c-.93-.1-1.85-.19-2.78-.29-.9.74-1.81,1.47-2.83,2.3-.99.02-2.1.03-3.19.05-.37.3-.74.6-1.23,1-1.7-.18-3.52-.36-5.83-.6-.73.85-1.64,1.89-1.82,2.09-3.06,1.4-3.19-2.09-5.16-1.3-1.11-2.07-3.33-2.93-5.33-4.64-.94-.1-2.3-.24-3.31-.34-1.86-.8-2.06-2.79-3.76-3.36-1.19-.4-2.22-1.29-3.95-2.35-1.56-1.92-3.62-4.45-5-6.15-1.55-1.08-2.22-1.61-2.96-2.05-.74-.44-1.53-.77-2.27-1.13,0-.55-.02-1-.02-1.45-.09-.2-.13-.45-.28-.58-3.66-3.26-4-8.4-6.83-12.13-.1-.14.14-.53.04-.67-1.1-1.48-2.64-2.79-3.25-4.44-.64-1.74-1.43-3.24-2.61-4.59-.05-.22-.15-.43-.15-.64-.02-.9.21-1.87-.06-2.68-.47-1.45-1.23-2.8-2-4.47.11-1.04.25-2.42.39-3.78-.43-.58-.84-1.13-1.24-1.66.34-3.26.67-6.5.96-9.34,1.22-1.72,2.23-3.14,3.27-4.6.11-1.11.23-2.26.34-3.31,1.62-2.43,3.18-4.78,4.97-7.48.24-2.31.52-5.08.81-7.84.53-.47,1.05-.93,1.53-1.35.1-.95.19-1.87.28-2.72-.44-.61-.84-1.16-1.27-1.75.33-3.23.66-6.46.99-9.61-.8-.98-1.53-1.88-2.35-2.89.08-.81.18-1.71.27-2.61-.42-.6-.81-1.16-1.26-1.82.13-1.26.27-2.64.42-4.03-.85-1.11-1.7-2.19-2.53-3.27.12-1.18.24-2.34.36-3.5-.36-1.01-.69-2.04-1.1-3.04-.33-.81-.76-1.57-1.15-2.35.12-1.16.24-2.32.36-3.46-.69-1.62-1.38-3.22-2.23-5.2,1.1-10.67,2.24-21.78,3.39-32.9-.43-.57-.85-1.12-1.25-1.66.5-.44,1.02-.89,1.47-1.28.1-1,.2-1.92.28-2.74-.45-.64-.84-1.19-1.19-1.68.22-2.18.44-4.27.65-6.36-.67-1.6-1.33-3.21-2.19-5.27.23-2.25.52-5.01.8-7.77-.42-.6-.82-1.15-1.27-1.78.09-.83.18-1.74.29-2.81-.73-.79-1.52-1.64-2.43-2.63.21-1.99.41-4.02.61-5.9-1.63-1.16-1.31-2.56-1.15-3.93-.18-.39-.32-.82-.57-1.17-.4-.57-.98-1.04-1.29-1.65-1-1.92-1.16-4.29-2.46-5.97-1.27-1.65-1.39-3.75-2.66-5.31.41-2.82-2.2-2.99-3.72-4.24.09-.87.18-1.78.25-2.4-.63-2.55-3.42-2.48-4.34-4.29-.88-1.72-1.45-3.6-2.39-6.01-.74-.91-1.92-2.36-3.11-3.82.09-.91.19-1.83.28-2.74-.43-.57-.84-1.12-1.27-1.7.04-.43.09-.89.14-1.32-.76-.93-1.49-1.84-2.47-3.04.14-1.32.48-2.91.41-4.49-.06-1.26-1.18-2.68-.84-3.7.62-1.91-1.78-2.78-1.04-4.55.46-.4.97-.86,1.51-1.33.23-2.28.47-4.59.73-7.07,1.98-.9,4.01.08,6.28.03.77.95,1.47,2.67,2.53,2.92,1.89.45,2.34,2.1,3.59,2.95,1.06.73,2.19,1.73,3.27,2.03,1.63.45,2.01,1.74,2.93,2.66-.02.46-.04.92-.06,1.37,2.21,2.71,4.41,5.42,6.62,8.14.61.23,1.55.29,1.77.72.8,1.57,3.12,1.04,3.66,2.84,2.31.24,4.63.48,7.13.73.18.78.37,1.62.56,2.45.39.19.77.39,1.17.55.21.08.51.02.65.15,1.75,1.72,2.61,4.37,5.37,5.03.15.03.35.39.31.55-.51,2.22,1.99,2.91,2.37,4.7.27,1.26.76,2.46,1.19,3.8,1.8,2.21,3.7,4.54,5.86,7.19.87-.32,2.07-.77,3.43-1.28.47.42.96.85,1.53,1.36,1.04-.31,2.2-.66,3.69-1.1.54-1.81.35-3.92.78-5.91.91-.73,1.81-1.47,2.99-2.43.18-1.77.39-3.8.57-5.56.63-.51.99-.81,1.56-1.27.19-1.88.41-3.94.62-6,.19-1.82.37-3.64.53-5.12.7-.57,1.07-.87,1.48-1.2.47-4.57.95-9.2,1.42-13.82.54-.48,1.05-.93,1.6-1.41-.29-.33-.59-.67-.88-.99-.65-1.63,0-3.18.14-4.75.36-.29.73-.59,1.36-1.1.52-5.01,1.06-10.28,1.58-15.3.63-.52,1-.81,1.5-1.22.13-1.23.27-2.59.39-3.76.7-.85,1.26-1.52,1.9-2.29-.74-1.81-1.47-3.61-2.22-5.46.36-.32.88-.77,1.34-1.17.71-1.46-.78-2.07-1.11-3.35.12-1.14.26-2.51.39-3.79-.37-.46-.66-.82-1.18-1.45.18-1.77.39-3.8.57-5.56-.51-.63-.81-.99-1.17-1.44.18-1.76.37-3.59.56-5.43-.42-.59-.82-1.15-1.28-1.79,1.21-2.05-1.28-3.65-.86-5.69-1.44-1.51-1.65-3.56-2.18-5.42-.5-1.77-2.94-2.46-2.39-4.68-1.24-1.65-2.48-3.3-3.76-5,.19-1.81.38-3.65.56-5.43-.35-.42-.64-.79-1.07-1.31.27-2.59.55-5.33.87-8.46.19-.2.66-.68,1.29-1.33.26-2.52.54-5.28.83-8.04.53-.51,1.02-.98,1.61-1.55.08-.77.17-1.68.28-2.73-.32-.43-.72-.99-1.19-1.62-.78-1.91,2.61-2.04,1.88-4.01,1.06-.86,2.12-1.73,3.38-2.75-.42-.92-.78-1.7-1.34-2.93.28-2.72.61-5.94.94-9.16-.42-.61-.8-1.16-1.26-1.83.08-.79.17-1.7.28-2.73.42-.37.93-.83,1.44-1.28-.37-.52-.76-1.05-1.15-1.58.37-.3.73-.6,1.19-.96.63-.92.91-2.36.37-3.12-1.5-2.1-1.46-3.65.54-5.35.76-.65,1.06-1.84,1.94-3.48.3-2.88.68-6.58,1.06-10.27.54-.47,1.06-.93,1.59-1.4.19-1.82.38-3.67.57-5.5.53-.47,1.05-.92,1.59-1.39.09-.91.19-1.83.28-2.71.4-.33.76-.62,1.4-1.14.18-1.77.39-3.79.57-5.56.63-.51.99-.81,1.63-1.32.18-1.77.39-3.79.57-5.56.63-.51.99-.81,1.45-1.18.13-1.29.27-2.65.41-4.02.54-.5,1.03-.96,1.6-1.49.08-.82.18-1.73.27-2.64,1.05-.9,2.07-1.78,3.05-2.64-.43-.61-.82-1.17-1.11-1.58-.41-1.67,1.34-1.86,1.77-3.37-.23-.48-.61-1.26-1.16-2.38.1-.96.24-2.33.4-3.87.37-.34.87-.8,1.4-1.29-.38-.51-.77-1.04-1.19-1.6.14-1.36.28-2.75.42-4.1-.43-.58-.84-1.13-1.27-1.71.62-6.01,1.24-12.03,1.85-17.99-.34-.42-.82-.75-.9-1.15-.31-1.71-.35-3.37-1.06-5.1-.61-1.49.21-3.58.37-5.11.66-.54,1.02-.83,1.38-1.13.07-.21.17-.41.2-.63.37-3.48.72-6.95,1.09-10.51-.37-.51-.77-1.06-1.21-1.67.14-1.31.28-2.7.44-4.25.51-.16,1.12-.36,2.03-.65.61,1.68,1.19,3.24,1.73,4.82.49,1.44,1.12,2.74,1.1,4.44-.02,1.59,1.21,3.2,2.06,5.22-.09.9-.23,2.27-.37,3.6,1.48,1.29.97,3.43,2.3,4.82.41.43-.11,1.77-.2,2.61.78,1.44,2.35,2.15,2.51,4.08.1,1.19,1.39,2.28,2.27,3.6-.12,1.14-.26,2.51-.4,3.89.43.58.84,1.13,1.27,1.71-.09.88-.19,1.8-.33,3.17.78.75,1.77,1.71,2.49,2.41.13,1.76-1.01,3.31.93,4.13-.25,2.44-.49,4.72-.77,7.49.97.64,2.16,1.42,2.71,1.79-.3,2.92-.49,4.76-.68,6.6.43.57.84,1.12,1.27,1.69-.14,1.36-.28,2.75-.48,4.7.71.61,1.72,1.49,2.85,2.47-2.12.87-1.89,2.39-2.1,3.88.31.47.68,1.03,1.15,1.74-.12,1.19-.26,2.56-.4,3.93.42.6.82,1.15,1.26,1.78-.32,3.14-.66,6.37-.99,9.61.43.57.85,1.12,1.28,1.68-.19,1.83-.38,3.68-.57,5.54.3.36.59.72,1.15,1.41-.03.79-.07,1.89-.11,2.94.42.59.81,1.15,1.15,1.64-.27,2.65-.54,5.2-.8,7.75.67,1.6,1.34,3.21,2.19,5.23-.05,1.08-.12,2.65-.2,4.24.79.26,1.41.47,2.18.72.14,1.23-.13,2.85.55,3.73.9,1.16.48,2.57,1.42,3.72.89,1.08,1.59,2.93,1.31,4.21-.42,1.87,1.43,2.81,1.15,4.48-.08.51.62,1.14,1.07,1.9-.12,1.16-.26,2.53-.4,3.86,1.46,1.31.83,3.58,2.39,4.75-.55,1.85,1.76,3.09.98,5.17-.41,1.08,1.57,2.17.93,3.71-.55,1.32,1.12,1.93,1.06,3.04-.08,1.39,0,2.52.8,3.86.7,1.16-.5,3.17,1.16,4.33-.71,1.54,1.11,2.31,1.11,3.73,0,1.49,1.25,2.67,1.03,4.45-.17,1.35,1.38,2.7.88,4.44-.13.46.57,1.15,1.03,2-.21,1.99-.44,4.28-.64,6.24,1.19,2.93,2.25,5.55,3.47,8.54-.14,1.4-.33,3.25-.52,5.06.32.4.62.76,1.06,1.31-.12,1.16-.26,2.5-.32,3.13.6,1.94.63,3.5,1.42,4.36,2.52,2.74,2.87,6.38,4.5,9.61-.46.52-.89,1.01-1.41,1.61.06.2.06.61.26.85,1.93,2.31,3.05,4.88,2.74,8.05,1.45,1.7,2.96,3.47,4.61,5.4.62.06,1.55.16,2.46.25.47.53.92,1.05,1.4,1.59,1.82.19,3.67.38,5.49.57.32.39.61.75,1.07,1.31.91.09,2,.21,3.13.32.32-.26.69-.56,1.19-.97,1.22.13,2.58.27,3.66.38,1.61-.71,2.95-1.3,4.28-1.88-.32-.39-.61-.75-.98-1.2.88-1.36,1.79-2.74,2.79-4.27-.22-.31-.59-.83-1-1.41.33-3.16.66-6.4.99-9.62-.43-.58-.84-1.13-1.24-1.66.38-3.72.77-7.43,1.15-11.16,1.08-.57,1.37-1.62,1.88-2.64.47-.95,1.72-1.52,2.73-2.34.18-1.72.37-3.55.55-5.38.53-.51,1.02-.98,1.61-1.54.08-.78.17-1.69.27-2.6.54-.48,1.05-.94,1.6-1.43.19-1.8.38-3.65.56-5.48.53-.47,1.05-.93,1.59-1.41.14-1.36.28-2.74.42-4.09q3.1-3.82,3.27-6.9c-.29-.36-.59-.72-.97-1.19.43-.42.87-.85,1.4-1.37.08-.79.18-1.7.27-2.62.54-.48,1.05-.93,1.59-1.41.23-2.27.47-4.59.71-6.9-.4-.53-.79-1.07-1.19-1.6.93-.76,1.83-1.49,2.88-2.34.22-2.15.46-4.43.76-7.42-.6-.51-1.66-1.4-2.43-2.05.15-1.5.25-2.41.34-3.33-.43-.57-.85-1.12-1.27-1.69.28-2.75.57-5.53.81-7.9-.72-1.75-1.3-3.16-2.19-5.3.18-1.72.43-4.21.66-6.45-.51-.63-.81-.99-1.32-1.63.23-2.24.49-4.72.72-6.95-.51-.63-.81-.99-1.17-1.44.23-2.21.46-4.51.73-7.12-.87-.85-1.87-1.81-2.63-2.55.24-2.3.43-4.16.62-5.98-.43-.57-.84-1.12-1.24-1.65.64-2.67-.94-4.7-1.88-7.7,1.13-10.96,2.34-22.72,3.54-34.34.51-.41.87-.71,1.31-1.07.18-1.76.37-3.6.55-5.36.73-.93,1.78-1.43,1.87-2.82.04-.65,1.14-1.23,1.84-1.93-.55-.98-.97-1.71-1.38-2.44.36-.3.72-.59,1.25-1.02.36-3.51.74-7.18,1.15-11.13-.25-.5-.79-1.25-1-2.07-.16-.64.28-1.42.12-2.06-.2-.83-.87-1.54-1.07-2.37-.16-.64.1-1.38.18-2.15.47-.42.97-.88,1.53-1.38.37-3.64.76-7.34,1.14-11.02.54-.48,1.06-.93,1.55-1.37.34-3.26.67-6.5,1-9.72-.31-.38-.61-.74-.92-1.13-.73-1.34.38-2.68.19-4.12-.34-.57-.67-1.13-1.27-2.14.11-1.1.27-2.66.41-3.97-.51-.63-.81-.99-1.32-1.63.33-3.16.68-6.58,1-9.74-.51-.63-.81-.99-1.15-1.42.28-2.71.56-5.47.82-7.96-.82-1.84-1.54-3.44-2.31-5.17.55-5.37,1.13-10.93,1.69-16.41.56-.51,1.06-.97,1.54-1.4-.15-1.36,1.1-2.92-.9-3.73.25-2.45.49-4.73.76-7.36.22-.23.69-.7,1.24-1.26.15-1.43.31-2.98.5-4.82-1.78.52-3.32,1.67-5.06.5-.51-1.08-.34-2.58-1.54-3.51.14-1.36.28-2.74.42-4.09-.47-.58-.91-1.12-1.35-1.67-.57-.7-1.16-1.31-1.07-2.4.05-.55-.59-1.16-1.05-1.98.64-6.2,1.3-12.67,1.97-19.14-.42-.6-.81-1.15-1.26-1.8.08-.81.18-1.73.27-2.64-.43-.57-.85-1.12-1.27-1.69.43-4.14.86-8.32,1.29-12.5.36-.29.72-.58,1.08-.87.18-.4.47-.78.51-1.18.3-2.53.54-5.08.79-7.53-.37-.45-.66-.81-.98-1.2-.19-1.3-.52-2.65.74-3.71.33-.28.84-.69.81-1-.19-1.79,1.1-2.84,1.84-4.18.31-.56.42-1.46.21-2.05-.6-1.63-1.42-3.18-2.06-4.56,1.64-3.06,4.4-5.46,4.97-9.03-.47-.86-.89-1.62-1.25-2.28.27-2.07,2.22-2.38,3.23-3.64.33-3.2.66-6.44,1.02-9.68.02-.16.34-.3.52-.44,2.6,1.38,1.87,4.98,4.38,6.32-.11,1.06-.2,1.97-.3,2.9.86,1.11,1.7,2.2,2.56,3.31-.24,2.29-.47,4.6-.71,6.9.75.93,1.49,1.83,2.38,2.92-.98,3.51,2.82,6.27,1.88,10.04.39.52.79,1.07,1.23,1.66-.14,1.34-.28,2.72-.42,4.1.43.57.84,1.12,1.27,1.7-.04.43-.09.89-.14,1.32.76.93,1.5,1.84,2.35,2.89-.17,1.68-.36,3.5-.55,5.32.41.63.77,1.19,1.25,1.93-.12,1.17-.26,2.53-.42,4.07.98,1.2,1.92,2.52,3.03,3.68,1.14,1.18.5,3.13,2.02,4.16.71.49.78,1.54,1.13,2.31.99,2.19,1.48,4.71,3.45,6.41.89.77,1.04,1.84,1.31,2.98.28,1.23,1.57,2.19,2.24,3.38.52.93.95,1.99,1.08,3.03.23,1.8,1.1,2.74,2.8,3.38,1.22.46,2.11,1.54,2.25,3.1.07.81,1.15,1.65,1.02,2.34-.3,1.71.62,3,.93,4.47.31,1.52-.23,3.22-.44,5.3.88.62,2.04,1.44,2.59,1.83-.49,4.74-.87,8.44-1.25,12.12.86,1.11,1.7,2.2,2.49,3.22.11,1.41-1.03,2.94.91,3.82-.1,1.69-.19,3.26-.28,4.7.39.49.69.85,1.08,1.32-.22,2.18-.46,4.47-.74,7.18.86.78,1.88,1.71,2.65,2.41-.29,2.82-.53,5.13-.77,7.42.43.58.84,1.13,1.27,1.7-.14,1.36-.28,2.75-.42,4.11.75.93,1.49,1.83,2.35,2.89-.27,2.6-.55,5.34-.89,8.65.84.68,1.91,1.56,2.67,2.18-.25,2.46-.44,4.3-.63,6.16.85,1.11,1.7,2.2,2.52,3.26.38,1.52-1.14,1.85-1.59,2.63-.11,1.07-.2,1.98-.31,2.99.8.39,1.58.76,2.48,1.19-.13,1.31-.27,2.66-.47,4.55.84.7,1.91,1.59,2.67,2.23-.16,1.51-.25,2.42-.35,3.35.86,1.11,1.7,2.2,1.96,2.54.59,1.66.87,2.48,1.51,4.28-.15,1.43-.4,3.92-.63,6.16.51.63.81.99,1.22,1.49-.13,1.23-.27,2.59-.41,3.95.41.62.78,1.18,1.25,1.9-.17,1.65-.36,3.48-.58,5.63.96.78,2.04,1.67,2.67,2.19-.56,5.45-1.04,10.09-1.52,14.72.59.72,1.18,1.45,1.82,2.23.85.09,1.76.18,2.68.28.48.54.94,1.05,1.37,1.53,1.36.68,2.17-.98,3.02-.9,1.75.17,2.89-.87,3.43-1.86.54-1,.91-2,1.89-2.62.19-1.88.38-3.73.57-5.55.54-.48,1.05-.93,1.55-1.38-.71-2.57,2.44-3.84,2.04-6.28,1.51-1.54,2.27-3.35,1.72-5.42.67-.66,1.16-1.13,1.75-1.71.13-1.22.27-2.59.4-3.91,1.69-1,1.64-3.19,3.25-4.26.49-.33.25-1.75.34-2.65,1.3-1.06,2.57-2.09,3.83-3.12.69.07,1.39.14,2.36.24,1.37.94,2.93,2.02,5.04,3.47.72-.95,1.56-2.06,2.09-2.78,3.65.59,2.88,3.76,4.53,5.31-.18,1.75-.37,3.58-.56,5.41.42.61.8,1.16,1.26,1.82-.37,3.57-.75,7.26-1.12,10.89.5.82.96,1.56,1.18,1.92.11,1.67-1.13,1.81-1.55,2.54-.1.94-.19,1.86-.35,3.4.6.74,1.47,1.8,2.55,3.14-.46.61-1.1,1.47-1.94,2.6.34.64.74,1.4,1.28,2.42-.11,1.07-.25,2.45-.39,3.83.43.58.84,1.12,1.27,1.7-.19,1.82-.38,3.67-.57,5.55.29.34.59.7,1.1,1.3-.19,1.8-.39,3.82-.58,5.6.51.63.81.99,1.25,1.54-.12,1.18-.26,2.52-.4,3.88.4.65.74,1.21,1.21,1.98-.02,1.34-.04,2.91-.06,4.48,2.02,1.35-.28,4.21,1.96,5.49-.14,1.38-.29,2.76-.43,4.14.43.57.85,1.12,1.27,1.68-.52,5.07-1.05,10.17-1.57,15.27.74.9,1.47,1.81,2.34,2.88-.45.57-.93,1.17-1.63,2.06.32.65.7,1.43,1.25,2.55-.15,1.42-.34,3.26-.53,5.09.42.59.82,1.15,1.27,1.77-.28,2.69-.56,5.46-.82,7.98.81,1.8,1.53,3.39,2.36,5.23-.21,2.04-.45,4.34-.68,6.59.34.42.63.78,1.06,1.31-.12,1.2-.26,2.55-.37,3.62.8,1.9,1.47,3.5,2.33,5.54-.09.88-.23,2.25-.37,3.63.43.59.83,1.14,1.27,1.75-.09.85-.18,1.77-.27,2.67.43.58.85,1.13,1.27,1.7-.14,1.37-.28,2.75-.43,4.12.31.38.6.74.91,1.12.59,1.61-.61,3.69,1.25,5-.21,1.8,2.15,3.15.73,5.36,3.33,2.55,2.7,7.4,5.99,10.36-.04.76-.08,1.66-.15,2.96,1.27,1.2,2.78,2.62,3.78,3.57-.2,1.92-.29,2.84-.39,3.81,1.18,1.41,2.38,2.83,3.65,4.34-.14,1.33-.28,2.68-.39,3.79.8,1.86,1.48,3.46,2.34,5.45-.14,1.39-.33,3.23-.52,5.07.43.57.85,1.12,1.27,1.69-.33,3.21-.67,6.46-.96,9.28.55,1.35.95,2.35,1.49,3.68.73.48,1.82,1.19,3.24,2.12,1.88.16,5.74-.94,6.97-2.17.93-.93.93-2.46,2.29-3.2,1.19-.64,2.16-1.69,3.18-2.52.11-1.06.2-1.97.29-2.78.46-.37.82-.67,1.31-1.06.13-1.24.27-2.6.38-3.72,1.16-1.64,2.16-3.07,3.39-4.81.1-.96.24-2.34.36-3.47,1.16-1.6,2.19-3.01,3.31-4.56.1-.98.22-2.14.37-3.56.44-.5,1.21-1.06,1.56-1.82,1.53-3.36,4.17-6.05,5.67-9.42,1.54-.82,1.03-2.4,1.18-2.95.96-1.5,1.54-2.41,2.59-4.07,1.85-1.47,4.4-3.49,6.93-5.5-.39-1.54,1.12-1.89,1.68-2.81.12-1.16.24-2.32.38-3.72.31-.34.76-.83,1.58-1.72.07-.64.33-1.77.26-2.88-.08-1.42,1.52-1.65,1.71-2.76.2-1.15.26-2.32.38-3.49.78-1.59,3.39-1.77,3.23-4.11,1.23-1.26,3.23-1.89,3.38-4.05,1.95-.75.88-3.16,1.98-4.02,1.85-1.45,1.2-3.35,1.68-5.33,1.07-.87,2.26-1.96,3.57-2.88,2.43-1.71,4.02-4.24,5.65-6.53,2.16-3.04,4.89-4.28,8.23-4.9.13-.02.33.27.7.59-.39.41-.77.82-1.3,1.38.28.43.6.93,1.02,1.57-.32,3.07-.65,6.29-.98,9.52.43.59.82,1.14,1.24,1.72-.47.42-.97.87-1.49,1.33-.57,5.54-1.14,11.1-1.72,16.65-.37.3-.74.6-1.14.93-.84,1.41-.62,3.03-.72,4.6.3.37.59.73,1.02,1.25-.17,1.66-.36,3.48-.59,5.68-.18.19-.65.67-1.28,1.33-.55,5.3-1.12,10.83-1.67,16.22-.69.8-1.26,1.46-1.74,2.02-.14,2.08,1.7,2.79,2.42,4.22-.28,2.74-.57,5.52-.85,8.24.44.6.84,1.15,1.41,1.93-.44.67-.91,1.4-1.49,2.3,1.52,1.11.29,3.03.87,4.6.53,1.43,1.25,2.79,2.02,4.46-.16,1.5-.35,3.36-.5,4.84.88,2.1,1.64,3.9,2.42,5.78-.53.57-.98,1.06-1.49,1.61.57,1.45,1.17,3,1.83,4.69-.3.27-.78.71-1.26,1.15.39.53.8,1.07,1.23,1.65-.09.9-.19,1.82-.28,2.7.32.4.62.76,1.13,1.39-.18,1.77-.39,3.79-.57,5.56.51.63.81.99,1.18,1.45,0,1.02.01,2.13.02,3.16.36.44.65.8,1.02,1.26-.28,2.67-.56,5.43-.82,7.94.81,1.83,1.51,3.42,2.35,5.32-.2,1.95-.44,4.27-.68,6.59.29.36.59.72,1.2,1.45-.11,3.07-.74,6.48-.88,9.9.3.36.59.72,1.1,1.36-.33,3.16-.68,6.57-.97,9.45,1.03,1.62,2.2,2.7,2.38,3.93.23,1.58,1.47,2.26,2.07,3.45.58,1.16,1.03,2.46,1.39,3.63.59,1.88,1.2,3.04,3.19,3.79,1.04.39,1.54,2.2,1.87,2.71,3.28.89,5.12-.67,7.2-1.25.05-.46.09-.92.14-1.36,1.02-1.2,2.86-1.52,3.23-3.45.14-.73,1.09-1.44,1.83-1.89.71-.44,1.88-.3,2.38-.84.53-.57.53-1.55,1.25-2.26.99-.97,1.2-2.43,3.19-2.65,2.13-.24,1.78-3.34,3.78-4.1-.53-.66-.83-1.02-1.21-1.49.42-.42.86-.85,1.39-1.38.13-1.24.27-2.62.38-3.71,1.18-1.63,2.2-3.04,3.38-4.67.31-2.96.64-6.2.97-9.41.39-.32.75-.61,1.11-.91.14-.17.38-.33.4-.51.43-3.94.82-7.88,1.24-11.82.02-.21.13-.42.2-.62.9-.74,1.81-1.47,2.81-2.29.32-3.13.65-6.35.99-9.65-.65-1.49-1.36-3.08-2.2-4.99.06-.55.15-1.47.25-2.38.5-.44,1-.89,1.49-1.33-.32-.39-.61-.75-1.13-1.39.32-3.16.68-6.57,1-9.74-.51-.63-.81-.99-1.22-1.5.6-5.86,1.22-11.86,1.84-17.86-.41-.62-.78-1.18-1.19-1.82-.08-1.51-.23-3.15,1.58-4.04.78-.95-.69-2.82,1.3-3.29.17.21.46.41.45.57-.16,1.86-.36,3.71-.55,5.57.29.36.59.72,1.1,1.35-.18,1.77-.39,3.79-.57,5.57.96,1.18,1.69,2.08,2.53,3.12-.32,3.09-.65,6.3-.96,9.28.8,1.85,1.49,3.45,2.34,5.41-.1.95-.24,2.33-.38,3.71.43.57.85,1.12,1.27,1.68-.14,1.37-.28,2.76-.39,3.8.85,1.87,1.92,3.4,2.19,5.07.27,1.72,2.1,3.16.98,5.12.93,1.35,1.46,2.78.95,4.44,1.33,1.06.74,3,1.89,4.17.26.27.46.89.33,1.21-.78,1.96,1.06,3.3,1.15,5.1.05.94,1.49,1.74,2.04,2.74.5.92.65,2.03,1.2,3.85-.05.52-.2,1.9-.34,3.27.43.59.83,1.14,1.27,1.74-.09.86-.18,1.78-.28,2.68.43.58.84,1.13,1.27,1.7-.43,4.15-.86,8.31-1.28,12.46.31.38.61.75.93,1.15.28,1.3.56,2.68-.68,3.69-1.28,1.04-1.54,2.78-.84,3.65,2.03,2.53.21,4.11-.91,5.94-.45.74-.94,1.46-1.66,2.58-.04.42-.14,1.34-.23,2.28.4.53.81,1.08,1.2,1.6-.24,2.35-.48,4.66-.71,6.89-.52.49-.98.93-1.44,1.36.35.43.65.8,1.08,1.33-.39.4-.79.82-1.34,1.39-.12,1.18-.26,2.54-.42,4.12.26.37.65.93,1.14,1.64-.05.51-.08,1.2-.21,1.87-.08.41-.22.96-.52,1.16-1.38.9-1.15,2.98-2.73,3.64-.53,5.12-1.05,10.21-1.57,15.27.77.94,1.5,1.85,2.35,2.89-.17,1.69-.36,3.51-.49,4.72,2.19,5.82,4.23,11.06,6.11,16.35.72,2.02,2.09,3.9,1.59,6.3-.1.47.68,1.12,1.08,1.73-.45.4-.95.85-1.45,1.29-.09.91-.19,1.84-.28,2.72.43.58.84,1.13,1.2,1.6Z"/>
  <text class="cls-4" transform="translate(463.12 705.53)"><tspan x="0" y="0">BIEN</tspan><tspan class="cls-5" x="221.72" y="0">A</tspan><tspan x="297.54" y="0">L:DE:</tspan><tspan x="0" y="110">ES</tspan><tspan class="cls-3" x="118.95" y="110">C</tspan><tspan x="194.77" y="110">U</tspan><tspan class="cls-3" x="264.38" y="110">C</tspan><tspan x="340.2" y="110">H</tspan><tspan class="cls-5" x="410.04" y="110">A</tspan><tspan x="485.86" y="110">R</tspan></text>
</svg>